<?xml version="1.0" encoding="UTF-8" standalone="no"?>
<svg
   id="pawn"
   viewBox="0 0 933.33 933.33"
   version="1.1"
   sodipodi:docname="bP.svg"
   inkscape:version="1.4.2 (ebf0e940, 2025-05-08)"
   xmlns:inkscape="http://www.inkscape.org/namespaces/inkscape"
   xmlns:sodipodi="http://sodipodi.sourceforge.net/DTD/sodipodi-0.dtd"
   xmlns:xlink="http://www.w3.org/1999/xlink"
   xmlns="http://www.w3.org/2000/svg"
   xmlns:svg="http://www.w3.org/2000/svg">
  <sodipodi:namedview
     id="namedview1"
     pagecolor="#ffffff"
     bordercolor="#111111"
     borderopacity="1"
     inkscape:showpageshadow="0"
     inkscape:pageopacity="0"
     inkscape:pagecheckerboard="1"
     inkscape:deskcolor="#d1d1d1"
     inkscape:zoom="0.89143174"
     inkscape:cx="467.2259"
     inkscape:cy="466.10411"
     inkscape:window-width="1152"
     inkscape:window-height="1186"
     inkscape:window-x="0"
     inkscape:window-y="30"
     inkscape:window-maximized="0"
     inkscape:current-layer="pawn" />
  <style
     id="style-base">.base{fill-opacity:1;fill-rule:evenodd;stroke-miterlimit:4;stroke-dasharray:none;stroke-linecap:round;stroke-linejoin:round;stroke-opacity:1}.stroke-medium{stroke-width:20}.stroke-color{stroke:#000}</style>
  <defs
     id="defs36222">
    <linearGradient
       id="linearGradient5">
      <stop
         id="stop4"
         offset="0"
         stop-color="#fff"
         stop-opacity="1"
         style="stop-color:#7e889a;stop-opacity:1;" />
      <stop
         id="stop5"
         offset="1"
         stop-color="#bfd3d7"
         stop-opacity="1"
         style="stop-color:#1d1d30;stop-opacity:1;" />
    </linearGradient>
    <linearGradient
       id="linearGradient3">
      <stop
         id="stop2"
         offset="0"
         stop-color="#fff"
         stop-opacity="1"
         style="stop-color:#7e889a;stop-opacity:1;" />
      <stop
         id="stop3"
         offset="1"
         stop-color="#bfd3d7"
         stop-opacity="1"
         style="stop-color:#1d1d30;stop-opacity:1;" />
    </linearGradient>
    <linearGradient
       id="fillGradient">
      <stop
         id="stop0"
         offset="0"
         stop-color="#fff"
         stop-opacity="1"
         style="stop-color:#7e889a;stop-opacity:1;" />
      <stop
         id="stop1"
         offset="1"
         stop-color="#bfd3d7"
         stop-opacity="1"
         style="stop-color:#1d1d30;stop-opacity:1;" />
    </linearGradient>
    <linearGradient
       xlink:href="#linearGradient3"
       id="head-gradient"
       x1="586.53"
       x2="1126.02"
       y1="328.04"
       y2="534.2"
       gradientTransform="matrix(.73447 0 0 .736 -84.66 58.44)"
       gradientUnits="userSpaceOnUse" />
    <linearGradient
       xlink:href="#linearGradient5"
       id="shoulders-gradient"
       x1="275.24"
       x2="862.65"
       y1="458.66"
       y2="560.75"
       gradientTransform="matrix(0.52669414,0,0,1.0626683,240.29496,-4.1125523)"
       gradientUnits="userSpaceOnUse" />
    <linearGradient
       xlink:href="#fillGradient"
       id="pawn-body-gradient"
       x1="300.27"
       x2="774.05"
       y1="623.78"
       y2="764.9"
       gradientTransform="translate(36 28)"
       gradientUnits="userSpaceOnUse" />
  </defs>
  <path
     id="boundary"
     fill="none"
     stroke-width="35"
     d="m 473.54,222.8 c -67.60518,0 -122.41,49.42776 -122.41,110.4 0,60.96871 54.79873,110.39502 122.4,110.4 67.60908,0.005 122.42,-49.42424 122.42,-110.4 0,-60.97224 -54.80482,-110.4 -122.41,-110.4 m -3.72,223.77 c -30.33,0.31 14.21641,5.23 -20.55359,14.16 -74.2,19.07 -86.63851,63.77642 -86.63851,63.77642 L 410.14418,526.75 C 401.14418,671.7 344,718.01 305.45,745.25 c -34.2,24.18 -25.46,82.35 19.9,85.32 28.12,1.84 276.62,2.36 305.66,-0.85 51.38,-5.67 52.84,-66.7 19.69,-87.3 C 601.35,711.74 540.46507,676.29821 529.24507,525.62821 l 48.163,-2.24358 c 0,0 -10.89806,-51.83 -77.49806,-66.68 -42.62,-9.5 0.25999,-10.43463 -30.08001,-10.13463 z"
     class="base stroke-color"
     sodipodi:nodetypes="cssscsccccccccccss" />
  <ellipse
     id="head"
     cx="473.54"
     cy="333.21"
     fill="url(#head-gradient)"
     class="base stroke-color stroke-medium"
     rx="122.41"
     ry="110.4" />
  <path
     id="pawn-body"
     fill="url(#pawn-body-gradient)"
     d="m 402.00986,495.01 c 1.47,170.18 -55.32986,221.1 -96.55986,250.25 -34.2,24.17 -25.46,82.34 19.9,85.3 28.12,1.85 276.62,2.37 305.66,-0.84 51.38,-5.67 52.84,-66.7 19.69,-87.3 -52.61,-32.71 -116.00776,-70.66179 -118.30776,-248.22179 -0.44,-33.3 -114.93731,-28.87821 -114.67731,0.82179 z"
     class="base stroke-color stroke-medium"
     sodipodi:nodetypes="cccccccc" />
  <path
     id="shoulders"
     fill="url(#shoulders-gradient)"
     d="m 419.55531,455.74654 c -39.08071,20.25446 -52.72209,70.14674 -52.72209,70.14674 h 215.33364 c 0,0 -22.87433,-55.0781 -57.95216,-70.85872 -44.89014,-20.1907 -68.03308,-18.2779 -104.65413,0.71198 z"
     class="base stroke-color stroke-medium"
     style="fill:url(#shoulders-gradient)" />
  <path
     id="lower-line"
     fill="none"
     d="M379.12 739.67h187.9"
     class="base stroke-color stroke-medium" />
</svg>
